<svg id="Layer_1" enable-background="new 0 0 480.051 480.051" height="512" viewBox="0 0 480.051 480.051" width="512" xmlns="http://www.w3.org/2000/svg"><path d="m402.025 424.794v47.257c0 4.418-3.582 8-8 8s-8-3.582-8-8v-47.257c0-36.795-29.775-66.571-66.573-66.571-17.411 0-33.209-8.87-42.258-23.729-2.299-3.773-1.103-8.695 2.671-10.993 3.771-2.3 8.694-1.104 10.993 2.671 6.122 10.051 16.812 16.051 28.594 16.051 45.638-.003 82.573 36.93 82.573 82.571zm-122.884-59.228c-28.755 24.207-72.253 16.775-91.341-15.47 12.269-8.101 20.813-21.498 22.056-37.259 68.295 20.107 136.619-31.146 137.167-101.823.005-.179.003-30.535.003-30.714 0-4.418-3.582-8-8-8s-8 3.582-8 8v29.875c0 50.178-40.822 91-91 91s-91-40.822-91-91v-64.891c.068-13.789 15.667-19.829 25.271-11.548 22.623 19.503 50.512 29.928 78.333 31.304 6.89.337 10.971-7.672 6.6-13.041-4.077-5.008-6.534-11.563-6.276-18.456 26.136 17.36 56.652 24.743 86.673 22.484 4.405-.331 7.708-4.172 7.377-8.578-.332-4.404-4.165-7.705-8.578-7.377-30.192 2.274-60.608-6.431-85.401-26.27-4.104-3.281-10.19-1.775-12.309 2.999-4.175 9.399-5.057 20.25-1.8 30.593-20.168-3.638-38.755-12.486-54.17-25.777-20.169-17.388-51.461-3.37-51.716 23.12l-.002 52.409c-5.344-2.771-9.001-8.288-9.001-14.637 0-.122.001-41.614-.002-41.736-.401-18.133 2.184-63.698 34.754-95.094 36.389-35.078 93.326-35.091 137.597-19.66l-6.394 2.632c-7.635 3.141-6.039 14.47 2.193 15.352l14.062 1.506c27.064 2.898 50.998 17.011 66.332 38.941-10.064 12.229-15.542 27.451-15.542 43.488v54.57c0 4.418 3.582 8 8 8s8-3.582 8-8v-54.57c0-13.903 5.369-27.007 15.118-36.896 2.714-2.75 3.047-7.188 1.154-10.243-15.95-25.579-39.684-42.049-66.771-48.655 4.332-3.641 3.595-10.641-1.556-13.25-23.232-11.797-56.657-19.988-88.004-18.775-79.872 3.096-126.623 62.745-124.942 140.919v41.473c0 15.303 10.707 28.166 25.077 31.621 1.494 40.859 26.003 75.946 60.923 92.643v2.107c0 18.442-14.944 33.342-33.427 33.342-45.648 0-82.573 36.93-82.573 82.571v47.257c0 4.418 3.582 8 8 8s8-3.582 8-8v-47.257c0-36.795 29.775-66.571 66.573-66.571 4.221 0 8.414-.532 12.506-1.592 23.508 42.011 79.478 52.207 116.341 21.176 3.38-2.846 3.813-7.893.968-11.272-2.846-3.383-7.896-3.814-11.273-.97z"/></svg>